<svg width="24" height="24" viewBox="0 0 24 24" xmlns="http://www.w3.org/2000/svg">
<path d="M5.8125 14.25C5.8125 13.7322 6.23223 13.3125 6.75 13.3125H8.25C8.76777 13.3125 9.1875 13.7322 9.1875 14.25V15.75C9.1875 16.2678 8.76777 16.6875 8.25 16.6875H6.75C6.23223 16.6875 5.8125 16.2678 5.8125 15.75V14.25Z"/>
<path fill-rule="evenodd" clip-rule="evenodd" d="M9.1875 3.5625V2.0625H7.3125V3.5625H3C2.48223 3.5625 2.0625 3.98223 2.0625 4.5V21C2.0625 21.5178 2.48223 21.9375 3 21.9375H21C21.5178 21.9375 21.9375 21.5178 21.9375 21V4.5C21.9375 3.98223 21.5178 3.5625 21 3.5625H16.6875V2.0625H14.8125V3.5625H9.1875ZM14.8125 6.9375V5.4375H9.1875V6.9375H7.3125V5.4375H3.9375V9.5625H20.0625V5.4375H16.6875V6.9375H14.8125ZM3.9375 11.4375V20.0625H20.0625V11.4375H3.9375Z"/>
</svg>
