<svg width="20" height="20" viewBox="0 0 20 20" xmlns="http://www.w3.org/2000/svg">
<path fill-rule="evenodd" clip-rule="evenodd" d="M11.4364 2.4411L4.101 10.6006C3.38854 11.3931 3.18996 12.2732 3.31696 13.1218C3.44734 13.9929 3.92856 14.8587 4.62279 15.5314C5.31808 16.205 6.17385 16.6341 6.99742 16.7073C7.79133 16.7779 8.60498 16.5256 9.31442 15.7365L15.9927 8.30783C17.0974 7.07904 16.8055 5.74335 16.0181 4.98083C15.6164 4.59177 15.1004 4.36908 14.5774 4.37317C14.0699 4.37714 13.4771 4.59519 12.9023 5.23451L6.59286 12.2529C6.40016 12.4672 6.36064 12.6613 6.37421 12.8164C6.38926 12.9884 6.47608 13.1682 6.62091 13.3085C6.76627 13.4492 6.93363 13.5159 7.07496 13.519C7.19577 13.5217 7.36485 13.481 7.55703 13.2673L13.5349 6.61781L14.6968 7.66242L8.719 14.3119C8.24616 14.8379 7.65071 15.0946 7.04036 15.0811C6.45052 15.0681 5.9201 14.8049 5.53392 14.4309C4.75675 13.6783 4.4354 12.3156 5.43088 11.2083L11.7404 4.1899C12.575 3.26148 13.5708 2.81849 14.5652 2.81072C15.5443 2.80306 16.4437 3.21794 17.1051 3.85838C18.4438 5.15484 18.8687 7.44586 17.1547 9.35244L10.4764 16.7811C9.43423 17.9403 8.13688 18.3772 6.85912 18.2637C5.61101 18.1528 4.43446 17.5245 3.53551 16.6535C2.63551 15.7815 1.96058 14.6153 1.77167 13.3531C1.57937 12.0682 1.89834 10.7136 2.93902 9.55601L10.2744 1.39648L11.4364 2.4411Z"/>
</svg>
