<svg width="20" height="20" viewBox="0 0 20 20" fill="none" xmlns="http://www.w3.org/2000/svg">
<path d="M5.80155 7.12737L7.12738 5.80154L10 8.67417L12.8726 5.80154L14.1984 7.12737L11.3258 9.99999L14.1984 12.8726L12.8726 14.1984L10 11.3258L7.12738 14.1984L5.80155 12.8726L8.67418 9.99999L5.80155 7.12737Z" fill="#5D6570"/>
<path fill-rule="evenodd" clip-rule="evenodd" d="M0.46875 10C0.46875 4.73604 4.73604 0.46875 10 0.46875C15.264 0.46875 19.5312 4.73604 19.5312 10C19.5312 15.264 15.264 19.5312 10 19.5312C4.73604 19.5312 0.46875 15.264 0.46875 10ZM10 2.03125C5.59898 2.03125 2.03125 5.59898 2.03125 10C2.03125 14.401 5.59898 17.9688 10 17.9688C14.401 17.9688 17.9688 14.401 17.9688 10C17.9688 5.59898 14.401 2.03125 10 2.03125Z" fill="#5D6570"/>
</svg>
