<svg width="20" height="24" viewBox="0 0 20 24" fill="none" xmlns="http://www.w3.org/2000/svg">
<path fill-rule="evenodd" clip-rule="evenodd" d="M2.96875 3.875C2.96875 3.44353 3.31853 3.09375 3.75 3.09375H11.875C12.0822 3.09375 12.2809 3.17606 12.4274 3.32257L16.8024 7.69757C16.9489 7.84409 17.0312 8.0428 17.0312 8.25V20.125C17.0312 20.5565 16.6815 20.9062 16.25 20.9062H3.75C3.31853 20.9062 2.96875 20.5565 2.96875 20.125V3.875ZM4.53125 4.65625V19.3438H15.4688V9.03125H11.875C11.4435 9.03125 11.0938 8.68147 11.0938 8.25V4.65625H4.53125ZM12.6562 5.7611L14.3639 7.46875H12.6562V5.7611Z" fill="#003099"/>
</svg>
