<svg width="18" height="18" viewBox="0 0 18 18" fill="none" xmlns="http://www.w3.org/2000/svg">
<path fill-rule="evenodd" clip-rule="evenodd" d="M11.0524 0.322573C10.9059 0.17606 10.7072 0.09375 10.5 0.09375C10.2928 0.09375 10.0941 0.17606 9.94759 0.322573L1.19759 9.07257C1.08852 9.18164 1.01418 9.32054 0.983934 9.47178L0.108934 13.8468C0.0577059 14.1029 0.13788 14.3677 0.322585 14.5524C0.507291 14.7371 0.772087 14.8173 1.02823 14.7661L5.40323 13.8911C5.55447 13.8608 5.69338 13.7865 5.80244 13.6774L14.5524 4.92743C14.8575 4.62233 14.8575 4.12767 14.5524 3.82257L11.0524 0.322573ZM12.8952 4.375L11.375 5.89515L8.97987 3.5L10.5 1.97985L12.8952 4.375ZM10.2702 7L7.87501 4.60485L2.4697 10.0102L1.87091 13.0041L4.86485 12.4053L10.2702 7Z" fill="#003099"/>
<path d="M17.9062 15.7188H0.09375V17.2812H17.9062V15.7188Z" fill="#003099"/>
</svg>
