<svg width="20" height="20" viewBox="0 0 20 20" fill="none" xmlns="http://www.w3.org/2000/svg">
<path fill-rule="evenodd" clip-rule="evenodd" d="M2.96875 1.875C2.96875 1.44353 3.31853 1.09375 3.75 1.09375H11.875C12.0822 1.09375 12.2809 1.17606 12.4274 1.32257L16.8024 5.69757C16.9489 5.84409 17.0312 6.0428 17.0312 6.25V18.125C17.0312 18.5565 16.6815 18.9062 16.25 18.9062H3.75C3.31853 18.9062 2.96875 18.5565 2.96875 18.125V1.875ZM4.53125 2.65625V17.3438H15.4688V7.03125H11.875C11.4435 7.03125 11.0938 6.68147 11.0938 6.25V2.65625H4.53125ZM12.6562 3.7611L14.3639 5.46875H12.6562V3.7611Z" fill="#003099"/>
</svg>
