<svg width="20" height="20" viewBox="0 0 20 20" xmlns="http://www.w3.org/2000/svg">
<path fill-rule="evenodd" clip-rule="evenodd" d="M1.875 7.65625H4.3355C4.66912 8.74198 5.67989 9.53125 6.875 9.53125C8.07011 9.53125 9.08088 8.74198 9.4145 7.65625H18.125V6.09375H9.4145C9.08088 5.00802 8.07011 4.21875 6.875 4.21875C5.67989 4.21875 4.66912 5.00802 4.3355 6.09375L1.875 6.09375V7.65625ZM6.875 5.78125C6.27094 5.78125 5.78125 6.27094 5.78125 6.875C5.78125 7.47906 6.27094 7.96875 6.875 7.96875C7.47906 7.96875 7.96875 7.47906 7.96875 6.875C7.96875 6.27094 7.47906 5.78125 6.875 5.78125Z" stroke-width="0"/>
<path fill-rule="evenodd" clip-rule="evenodd" d="M18.125 12.9688H15.6645C15.3309 11.883 14.3201 11.0938 13.125 11.0938C11.9299 11.0938 10.9191 11.883 10.5855 12.9688H1.875V14.5312H10.5855C10.9191 15.617 11.9299 16.4062 13.125 16.4062C14.3201 16.4062 15.3309 15.617 15.6645 14.5312H18.125V12.9688ZM13.125 12.6562C13.7291 12.6562 14.2188 13.1459 14.2188 13.75C14.2188 14.3541 13.7291 14.8438 13.125 14.8438C12.5209 14.8438 12.0312 14.3541 12.0312 13.75C12.0312 13.1459 12.5209 12.6562 13.125 12.6562Z" stroke-width="0"/>
</svg>
