<svg width="24" height="24" viewBox="0 0 24 24" fill="none" xmlns="http://www.w3.org/2000/svg">
<path d="M18.4 19C18.8243 19 19.2313 18.8265 19.5314 18.5176C19.8314 18.2087 20 17.7898 20 17.3529V9.11765C20 8.68082 19.8314 8.26188 19.5314 7.953C19.2313 7.64412 18.8243 7.47059 18.4 7.47059H12.08C11.8124 7.47329 11.5484 7.40686 11.3122 7.27737C11.076 7.14789 10.8752 6.95949 10.728 6.72941L10.08 5.74118C9.93431 5.51345 9.73598 5.32651 9.5028 5.19715C9.26962 5.06779 9.00889 5.00004 8.744 5H5.6C5.17565 5 4.76869 5.17353 4.46863 5.48241C4.16857 5.7913 4 6.21023 4 6.64706V17.3529C4 17.7898 4.16857 18.2087 4.46863 18.5176C4.76869 18.8265 5.17565 19 5.6 19H18.4Z" stroke-width="1.5" stroke-linecap="square" stroke-linejoin="round"/>
</svg>
