<svg width="24" height="24" viewBox="0 0 24 24" fill="none" xmlns="http://www.w3.org/2000/svg">
<path d="M21 10C21 17 12 23 12 23C12 23 3 17 3 10C3 7.61305 3.94821 5.32387 5.63604 3.63604C7.32387 1.94821 9.61305 1 12 1C14.3869 1 16.6761 1.94821 18.364 3.63604C20.0518 5.32387 21 7.61305 21 10Z" fill="#D92D20"/>
<path fill-rule="evenodd" clip-rule="evenodd" d="M12 5.75C12.6904 5.75 13.25 6.30964 13.25 7V11.5C13.25 12.1904 12.6904 12.75 12 12.75C11.3096 12.75 10.75 12.1904 10.75 11.5V7C10.75 6.30964 11.3096 5.75 12 5.75ZM10.75 16C10.75 15.3096 11.3096 14.75 12 14.75H12.01C12.7004 14.75 13.26 15.3096 13.26 16C13.26 16.6904 12.7004 17.25 12.01 17.25H12C11.3096 17.25 10.75 16.6904 10.75 16Z" fill="white"/>
</svg>
