<svg width="20" height="20" viewBox="0 0 20 20" xmlns="http://www.w3.org/2000/svg">
<path fill-rule="evenodd" clip-rule="evenodd" d="M9.84375 4.84375C8.20416 4.84375 6.875 6.1729 6.875 7.8125C6.875 9.4521 8.20416 10.7813 9.84375 10.7813C11.4833 10.7813 12.8125 9.4521 12.8125 7.8125C12.8125 6.1729 11.4833 4.84375 9.84375 4.84375ZM8.4375 7.8125C8.4375 7.03585 9.0671 6.40625 9.84375 6.40625C10.6204 6.40625 11.25 7.03585 11.25 7.8125C11.25 8.58915 10.6204 9.21875 9.84375 9.21875C9.0671 9.21875 8.4375 8.58915 8.4375 7.8125Z" stroke-width="0"/>
<path fill-rule="evenodd" clip-rule="evenodd" d="M8.31898 17.6743C8.61083 17.9887 8.85458 18.2402 9.02622 18.4139C9.05504 18.443 9.13452 18.5217 9.20118 18.5876C9.26475 18.6505 9.31667 18.7019 9.3019 18.6878C9.60443 18.9791 10.0831 18.9791 10.3856 18.6878C10.4788 18.5978 10.5702 18.506 10.6613 18.4139C10.8329 18.2402 11.0767 17.9887 11.3685 17.6743C11.9514 17.0463 12.7302 16.1626 13.5111 15.1423C14.29 14.1244 15.0828 12.9551 15.6838 11.7562C16.2795 10.5679 16.7188 9.28807 16.7188 8.06548C16.7188 4.22674 13.6523 1.09375 9.84375 1.09375C6.03524 1.09375 2.96875 4.22674 2.96875 8.06548C2.96875 9.28807 3.40803 10.5679 4.00374 11.7562C4.60473 12.9551 5.39751 14.1244 6.17644 15.1423C6.95725 16.1626 7.73612 17.0463 8.31898 17.6743ZM9.84375 2.65625C6.92129 2.65625 4.53125 5.0664 4.53125 8.06548C4.53125 8.93924 4.85369 9.96507 5.40056 11.056C5.94214 12.1363 6.6728 13.2198 7.41731 14.1927C8.15994 15.1632 8.9045 16.0083 9.46422 16.6113C9.60339 16.7613 9.73087 16.896 9.84375 17.0136C9.95663 16.896 10.0841 16.7613 10.2233 16.6113C10.783 16.0083 11.5276 15.1632 12.2702 14.1927C13.0147 13.2198 13.7454 12.1363 14.2869 11.056C14.8338 9.96507 15.1563 8.93924 15.1563 8.06548C15.1563 5.0664 12.7662 2.65625 9.84375 2.65625Z" stroke-width="0"/>
</svg>
