<svg width="24" height="24" viewBox="0 0 24 24" xmlns="http://www.w3.org/2000/svg">
<path fill-rule="evenodd" clip-rule="evenodd" d="M10.875 2.8125C6.4222 2.8125 2.8125 6.4222 2.8125 10.875C2.8125 15.3278 6.4222 18.9375 10.875 18.9375C12.7636 18.9375 14.5005 18.2881 15.8747 17.2005L20.2499 21.5758L21.5757 20.25L17.2005 15.8747C18.2881 14.5005 18.9375 12.7636 18.9375 10.875C18.9375 6.4222 15.3278 2.8125 10.875 2.8125ZM4.6875 10.875C4.6875 7.45774 7.45774 4.6875 10.875 4.6875C14.2923 4.6875 17.0625 7.45774 17.0625 10.875C17.0625 14.2923 14.2923 17.0625 10.875 17.0625C7.45774 17.0625 4.6875 14.2923 4.6875 10.875Z" stroke-width="0"/>
</svg>
