<svg width="16" height="16" viewBox="0 0 16 16" fill="none" xmlns="http://www.w3.org/2000/svg">
<path fill-rule="evenodd" clip-rule="evenodd" d="M7.25 1.875C4.28147 1.875 1.875 4.28147 1.875 7.25C1.875 10.2185 4.28147 12.625 7.25 12.625C8.50907 12.625 9.66702 12.1921 10.5831 11.467L13.4999 14.3839L14.3838 13.5L11.467 10.5831C12.1921 9.66701 12.625 8.50906 12.625 7.25C12.625 4.28147 10.2185 1.875 7.25 1.875ZM3.125 7.25C3.125 4.97183 4.97183 3.125 7.25 3.125C9.52817 3.125 11.375 4.97183 11.375 7.25C11.375 9.52817 9.52817 11.375 7.25 11.375C4.97183 11.375 3.125 9.52817 3.125 7.25Z" fill="#176DEF"/>
</svg>
