<svg width="20" height="20" viewBox="0 0 20 20" xmlns="http://www.w3.org/2000/svg">
<path fill-rule="evenodd" clip-rule="evenodd" d="M10.0006 6.71875C8.18846 6.71875 6.71939 8.18782 6.71939 10C6.71939 11.8122 8.18846 13.2812 10.0006 13.2812C11.8128 13.2812 13.2819 11.8122 13.2819 10C13.2819 8.18782 11.8128 6.71875 10.0006 6.71875ZM8.28189 10C8.28189 9.05076 9.0514 8.28125 10.0006 8.28125C10.9499 8.28125 11.7194 9.05076 11.7194 10C11.7194 10.9492 10.9499 11.7188 10.0006 11.7188C9.0514 11.7188 8.28189 10.9492 8.28189 10Z" stroke-width="0"/>
<path fill-rule="evenodd" clip-rule="evenodd" d="M10.0005 1.33446C9.42282 1.33446 8.85758 1.3911 8.31029 1.49936C8.02246 1.5563 7.7908 1.7697 7.71049 2.05191L7.17631 3.92885C6.87998 4.06691 6.59553 4.22596 6.32488 4.40406L4.37879 3.9149C4.10059 3.84497 3.80645 3.93313 3.61257 4.14454C2.86684 4.95768 2.27392 5.91429 1.88012 6.9689C1.77482 7.25088 1.84089 7.56827 2.04995 7.78482L3.36057 9.14235C3.32458 9.42344 3.30606 9.70971 3.30606 9.99997C3.30606 10.1617 3.31181 10.3223 3.32314 10.4814L1.94334 11.9106C1.74233 12.1188 1.67288 12.421 1.76286 12.6961C2.09866 13.7227 2.62065 14.6643 3.28835 15.481C3.48003 15.7155 3.78995 15.8181 4.08366 15.7443L5.89587 15.2888C6.32837 15.6248 6.80345 15.9092 7.31186 16.1324L7.83531 17.9717C7.91687 18.2583 8.15435 18.4735 8.44754 18.5266C8.95193 18.6179 9.471 18.6655 10.0005 18.6655C10.53 18.6655 11.0491 18.6179 11.5535 18.5266C11.8467 18.4735 12.0841 18.2583 12.1657 17.9717L12.6892 16.1324C13.1976 15.9092 13.6726 15.6248 14.1051 15.2888L15.9174 15.7443C16.2111 15.8181 16.521 15.7155 16.7127 15.481C17.3804 14.6643 17.9024 13.7227 18.2382 12.6961C18.3281 12.4211 18.2587 12.1188 18.0577 11.9106L16.6779 10.4814C16.6892 10.3223 16.695 10.1617 16.695 9.99997C16.695 9.70971 16.6764 9.42344 16.6404 9.14234L17.9511 7.78482C18.1601 7.56827 18.2262 7.25088 18.1209 6.96889C17.7271 5.91429 17.1342 4.95768 16.3885 4.14454C16.1946 3.93312 15.9004 3.84497 15.6222 3.9149L13.6761 4.40406C13.4055 4.22596 13.121 4.06691 12.8247 3.92885L12.2905 2.05191C12.2102 1.7697 11.9786 1.5563 11.6907 1.49936C11.1434 1.3911 10.5782 1.33446 10.0005 1.33446ZM8.57764 4.71318L9.07765 2.95627C9.37944 2.91716 9.68745 2.89696 10.0005 2.89696C10.3136 2.89696 10.6216 2.91716 10.9234 2.95627L11.4234 4.71318C11.4899 4.94692 11.6614 5.13639 11.8874 5.22579C12.3063 5.39152 12.6985 5.61099 13.0555 5.87592C13.2436 6.01552 13.4844 6.06336 13.7115 6.00626L15.5354 5.54782C15.9081 6.01045 16.2237 6.5205 16.4719 7.06727L15.2457 8.33737C15.0692 8.52021 14.9927 8.77749 15.0405 9.0271C15.1008 9.34151 15.1325 9.66667 15.1325 9.99997C15.1325 10.2254 15.118 10.447 15.09 10.6641C15.0596 10.8995 15.1379 11.1359 15.3027 11.3067L16.5949 12.6451C16.3865 13.1641 16.1185 13.653 15.7991 14.1034L14.1025 13.677C13.8527 13.6142 13.5881 13.6785 13.395 13.849C12.9227 14.2659 12.3737 14.5968 11.7725 14.818C11.5382 14.9042 11.3592 15.0972 11.2909 15.3373L10.8011 17.0584C10.5385 17.0879 10.2714 17.103 10.0005 17.103C9.72961 17.103 9.46251 17.0879 9.19995 17.0584L8.71013 15.3373C8.64179 15.0972 8.46279 14.9042 8.22848 14.818C7.62728 14.5968 7.07827 14.2659 6.60597 13.849C6.41291 13.6785 6.14827 13.6142 5.89852 13.677L4.20194 14.1034C3.88257 13.653 3.61451 13.1641 3.40611 12.6451L4.69827 11.3067C4.86313 11.1359 4.94142 10.8995 4.91105 10.6641C4.88304 10.447 4.86856 10.2254 4.86856 9.99997C4.86856 9.66667 4.90023 9.34151 4.96051 9.0271C5.00836 8.7775 4.9318 8.52022 4.75528 8.33737L3.52907 7.06728C3.77729 6.5205 4.09296 6.01045 4.46561 5.54782L6.28947 6.00626C6.51663 6.06336 6.75743 6.01552 6.94552 5.87592C7.30248 5.61099 7.6947 5.39152 8.11362 5.22579C8.3396 5.13639 8.51111 4.94692 8.57764 4.71318Z" stroke-width=""/>
</svg>
