<svg width="24" height="24" viewBox="0 0 24 24" fill="none" xmlns="http://www.w3.org/2000/svg">
<path d="M24 12C24 18.6274 18.6274 24 12 24C5.37258 24 0 18.6274 0 12C0 5.37258 5.37258 0 12 0C18.6274 0 24 5.37258 24 12Z" fill="#0763ED"/>
<path d="M10.35 7.34998C10.35 6.43871 11.0888 5.69998 12 5.69998C12.9113 5.69998 13.65 6.43871 13.65 7.34998C13.65 8.26125 12.9113 9 12 9C11.0888 9 10.35 8.26125 10.35 7.34998Z" fill="white"/>
<path d="M10.8749 10.8H13.1251V18.3H10.8749V10.8Z" fill="white"/>
</svg>
