<svg width="24" height="24" viewBox="0 0 24 24" fill="none" xmlns="http://www.w3.org/2000/svg">
<path d="M24 12C24 18.6274 18.6274 24 12 24C5.37258 24 0 18.6274 0 12C0 5.37258 5.37258 0 12 0C18.6274 0 24 5.37258 24 12Z" fill="#F27500"/>
<path d="M10.6865 5.24973H13.3115L12.9365 12.7497H11.0615L10.6865 5.24973Z" fill="white"/>
<path d="M10.35 16.6497C10.35 15.7385 11.0887 14.9997 12 14.9997C12.9113 14.9997 13.65 15.7385 13.65 16.6497C13.65 17.5611 12.9113 18.2997 12 18.2997C11.0887 18.2997 10.35 17.5611 10.35 16.6497Z" fill="white"/>
</svg>
