<svg width="24" height="24" viewBox="0 0 24 24" xmlns="http://www.w3.org/2000/svg">
<path d="M12.9375 11.4692V5.06244H11.0625V12C11.0625 12.3293 11.2353 12.6345 11.5177 12.8039L16.0716 15.5362L17.0362 13.9284L12.9375 11.4692Z"/>
<path fill-rule="evenodd" clip-rule="evenodd" d="M12 1.3125C6.09748 1.3125 1.3125 6.09748 1.3125 12C1.3125 17.9025 6.09748 22.6875 12 22.6875C17.9025 22.6875 22.6875 17.9025 22.6875 12C22.6875 6.09748 17.9025 1.3125 12 1.3125ZM3.1875 12C3.1875 7.13301 7.13301 3.1875 12 3.1875C16.867 3.1875 20.8125 7.13301 20.8125 12C20.8125 16.867 16.867 20.8125 12 20.8125C7.13301 20.8125 3.1875 16.867 3.1875 12Z"/>
</svg>
