<svg width="20" height="20" viewBox="0 0 21 21" xmlns="http://www.w3.org/2000/svg">
<path d="M9.68076 7.79406V16.7249H7.79396V7.79406H9.68076Z" />
<path d="M13.706 16.7249V7.79406H11.8192V16.7249H13.706Z" />
<path fill-rule="evenodd" clip-rule="evenodd" d="M7.73113 0.75C7.21011 0.75 6.78773 1.17237 6.78773 1.6934V3.76887H0.75V5.65566H2.82338L3.77096 19.8694C3.80399 20.3649 4.2156 20.75 4.71226 20.75H16.7877C17.2844 20.75 17.696 20.3649 17.729 19.8694L18.6766 5.65566H20.75V3.76887H14.7123V1.6934C14.7123 1.17237 14.2899 0.75 13.7689 0.75H7.73113ZM12.8255 3.76887V2.63679H8.67453V3.76887H12.8255ZM16.7856 5.65566H4.71436L5.59486 18.8632H15.9051L16.7856 5.65566Z" />
</svg>
