<svg width="20" height="20" viewBox="0 0 20 20" xmlns="http://www.w3.org/2000/svg">
<path d="M5.46869 5.625C5.46869 3.12246 7.4974 1.09375 9.99994 1.09375C12.5025 1.09375 14.5312 3.12246 14.5312 5.625C14.5312 8.12754 12.5025 10.1562 9.99994 10.1562C7.4974 10.1562 5.46869 8.12754 5.46869 5.625Z"/>
<path d="M18.0996 18.9063C18.3343 18.9063 18.5566 18.8007 18.705 18.6189C18.8535 18.4368 18.9119 18.1934 18.864 17.9637L18.8626 17.9571L18.8583 17.9373C18.8547 17.9212 18.8497 17.8994 18.8431 17.8723C18.8299 17.8181 18.8105 17.7425 18.7837 17.6486C18.73 17.4608 18.6465 17.1988 18.524 16.887C18.2796 16.2654 17.8755 15.4351 17.2345 14.6018C15.9347 12.9121 13.6857 11.25 9.97462 11.25C6.26355 11.25 4.01452 12.9121 2.71475 14.6018C2.07373 15.4351 1.66967 16.2654 1.42528 16.887C1.30271 17.1988 1.2192 17.4608 1.16556 17.6486C1.13872 17.7425 1.11928 17.8181 1.10613 17.8723C1.09955 17.8994 1.09453 17.9212 1.09094 17.9373C1.08045 17.9857 1.0843 17.9681 1.0843 17.9681C1.03713 18.198 1.09586 18.437 1.24422 18.6189C1.39259 18.8007 1.61489 18.9063 1.84962 18.9063H18.0996Z"/>
</svg>
