<?xml version="1.0" encoding="utf-8"?><svg xmlns="http://www.w3.org/2000/svg" xmlns:xlink="http://www.w3.org/1999/xlink"><symbol fill="none" viewBox="0 0 24 24" id="angle_down" xmlns="http://www.w3.org/2000/svg">
    <path fill-rule="evenodd" clip-rule="evenodd" d="M19.5 8.424l-7.5 7.5-7.5-7.5L3.174 9.75l8.163 8.163a.938.938 0 001.326 0l8.163-8.163L19.5 8.424z" fill="#13151A"/>
</symbol><symbol viewBox="0 0 26 27" id="arrow_down" xmlns="http://www.w3.org/2000/svg">
    <path fill-rule="evenodd" clip-rule="evenodd" d="M21.125 9.126L13 17.251 4.875 9.126 3.44 10.563l8.843 8.843a1.016 1.016 0 001.436 0l8.843-8.843-1.436-1.437z"/>
</symbol><symbol viewBox="0 0 24 24" id="calendar" xmlns="http://www.w3.org/2000/svg">
    <path d="M5.813 14.25c0-.518.42-.938.937-.938h1.5c.518 0 .938.42.938.938v1.5c0 .518-.42.938-.938.938h-1.5a.937.937 0 01-.938-.938v-1.5z"/>
    <path fill-rule="evenodd" clip-rule="evenodd" d="M9.188 3.563v-1.5H7.312v1.5H3a.937.937 0 00-.938.937V21c0 .518.42.938.938.938h18c.518 0 .938-.42.938-.938V4.5A.937.937 0 0021 3.562h-4.313v-1.5h-1.875v1.5H9.189zm5.624 3.374v-1.5H9.189v1.5H7.312v-1.5H3.938v4.125h16.125V5.439h-3.375v1.5h-1.875zm-10.874 4.5v8.626h16.125v-8.625H3.938z"/>
</symbol><symbol viewBox="0 0 17 15" id="chevron_double" xmlns="http://www.w3.org/2000/svg">
    <path fill-rule="evenodd" clip-rule="evenodd" d="M.482 1.593l6.16 6.16-6.16 6.158 1.089 1.09 6.703-6.704a.77.77 0 000-1.09L1.571.505.482 1.594z"/>
    <path fill-rule="evenodd" clip-rule="evenodd" d="M8.5 1.593l6.16 6.16L8.5 13.91l1.089 1.09 6.703-6.704a.77.77 0 000-1.09L9.59.505 8.5 1.594z"/>
</symbol><symbol viewBox="0 0 20 20" id="clip" xmlns="http://www.w3.org/2000/svg">
    <path fill-rule="evenodd" clip-rule="evenodd" d="M11.436 2.441l-7.335 8.16c-.712.792-.911 1.672-.784 2.52.13.872.612 1.738 1.306 2.41.695.674 1.55 1.103 2.374 1.176.794.07 1.608-.181 2.317-.97l6.679-7.43c1.104-1.228.812-2.564.025-3.326-.402-.39-.918-.612-1.44-.608-.508.004-1.1.222-1.676.862l-6.31 7.018c-.192.214-.231.408-.218.563a.799.799 0 00.247.492c.145.141.313.208.454.211.12.003.29-.038.482-.252l5.978-6.65 1.162 1.045-5.978 6.65c-.473.526-1.068.783-1.679.77a2.254 2.254 0 01-1.506-.651c-.777-.753-1.099-2.115-.103-3.223l6.31-7.018c.834-.929 1.83-1.372 2.824-1.38.98-.007 1.879.408 2.54 1.048 1.339 1.297 1.764 3.588.05 5.494l-6.679 7.43c-1.042 1.158-2.34 1.595-3.617 1.482-1.248-.111-2.425-.74-3.323-1.61-.9-.873-1.575-2.039-1.764-3.3-.193-1.286.126-2.64 1.167-3.798l7.335-8.16 1.162 1.045z"/>
</symbol><symbol viewBox="0 0 20 20" id="cross" xmlns="http://www.w3.org/2000/svg">
    <path d="M8.895 10L3.27 15.625l1.105 1.105L10 11.105l5.625 5.625 1.105-1.105L11.105 10l5.625-5.625-1.105-1.105L10 8.895 4.375 3.27 3.27 4.375 8.895 10z" stroke-width="0"/>
</symbol><symbol fill="none" viewBox="0 0 20 20" id="cross-circle" xmlns="http://www.w3.org/2000/svg">
    <path d="M5.802 7.127l1.325-1.325L10 8.674l2.873-2.872 1.325 1.325L11.326 10l2.872 2.873-1.325 1.325L10 11.326l-2.873 2.872-1.325-1.325L8.674 10 5.802 7.127z" fill="#5D6570"/>
    <path fill-rule="evenodd" clip-rule="evenodd" d="M.469 10a9.531 9.531 0 1119.062 0A9.531 9.531 0 01.47 10zM10 2.031a7.969 7.969 0 100 15.938A7.969 7.969 0 0010 2.03z" fill="#5D6570"/>
</symbol><symbol fill="none" viewBox="0 0 20 24" id="doc" xmlns="http://www.w3.org/2000/svg">
    <path fill-rule="evenodd" clip-rule="evenodd" d="M2.969 3.875c0-.431.35-.781.781-.781h8.125c.207 0 .406.082.552.229l4.375 4.375a.781.781 0 01.23.552v11.875c0 .431-.35.781-.782.781H3.75a.781.781 0 01-.781-.781V3.875zm1.562.781v14.688H15.47V9.03h-3.594a.781.781 0 01-.781-.781V4.656H4.53zm8.125 1.105l1.708 1.708h-1.708V5.76z" fill="#003099"/>
</symbol><symbol fill="none" viewBox="0 0 20 20" id="docs" xmlns="http://www.w3.org/2000/svg">
    <path d="M16.667 10.417v-4.75c0-1.4 0-2.1-.273-2.635a2.5 2.5 0 00-1.092-1.093c-.535-.272-1.235-.272-2.635-.272H7.333c-1.4 0-2.1 0-2.635.272a2.5 2.5 0 00-1.092 1.093c-.273.534-.273 1.234-.273 2.635v8.666c0 1.4 0 2.1.273 2.635a2.5 2.5 0 001.092 1.093c.535.272 1.235.272 2.635.272H10m1.667-9.166h-5M8.333 12.5H6.667m6.666-6.667H6.667m5.416 10L13.75 17.5l3.75-3.75" stroke-width="1.67" stroke-linecap="round" stroke-linejoin="round"/>
</symbol><symbol viewBox="0 0 16 16" id="download" xmlns="http://www.w3.org/2000/svg">
    <path d="M12.884 7.5l-4.442 4.442a.625.625 0 01-.884 0L3.116 7.5 4 6.616l3.375 3.375V1.375h1.25v8.616L12 6.616l.884.884zM13.5 13.375h-11v1.25h11v-1.25z"/>
</symbol><symbol fill="none" viewBox="0 0 18 18" id="edit" xmlns="http://www.w3.org/2000/svg">
    <path fill-rule="evenodd" clip-rule="evenodd" d="M11.052.323a.781.781 0 00-1.104 0l-8.75 8.75a.781.781 0 00-.214.399l-.875 4.375a.781.781 0 00.92.92l4.374-.876a.781.781 0 00.4-.214l8.75-8.75a.781.781 0 000-1.104l-3.5-3.5zm1.843 4.052l-1.52 1.52L8.98 3.5l1.52-1.52 2.395 2.395zM10.27 7L7.875 4.605 2.47 10.01l-.6 2.994 2.995-.599L10.27 7z" fill="#003099"/>
    <path d="M17.906 15.719H.094v1.562h17.812V15.72z" fill="#003099"/>
</symbol><symbol fill="none" viewBox="0 0 14 14" id="error" xmlns="http://www.w3.org/2000/svg">
    <circle cx="7" cy="7" r="7" fill="#CC0029"/>
    <path d="M7 7.962l2.581 2.582.963-.963L7.962 7l2.582-2.581-.963-.963L7 6.037 4.419 3.456l-.963.963 2.581 2.58-2.581 2.582.963.963 2.58-2.582z" fill="#fff"/>
</symbol><symbol viewBox="0 0 20 20" id="export" xmlns="http://www.w3.org/2000/svg">
    <path d="M16.105 9.375l-5.553 5.552a.781.781 0 01-1.104 0L3.895 9.375 5 8.27l4.219 4.219V1.719h1.562v10.77L15 8.27l1.105 1.105zM16.875 16.719H3.125v1.562h13.75V16.72z" stroke-width="0"/>
</symbol><symbol fill="none" viewBox="0 0 20 20" id="file" xmlns="http://www.w3.org/2000/svg">
    <path fill-rule="evenodd" clip-rule="evenodd" d="M2.969 1.875c0-.431.35-.781.781-.781h8.125c.207 0 .406.082.552.229l4.375 4.375a.781.781 0 01.23.552v11.875c0 .431-.35.781-.782.781H3.75a.781.781 0 01-.781-.781V1.875zm1.562.781v14.688H15.47V7.03h-3.594a.781.781 0 01-.781-.781V2.656H4.53zm8.125 1.105l1.708 1.708h-1.708V3.76z" fill="#003099"/>
</symbol><symbol viewBox="0 0 20 20" id="filter" xmlns="http://www.w3.org/2000/svg">
    <path fill-rule="evenodd" clip-rule="evenodd" d="M1.875 7.656h2.46a2.657 2.657 0 005.08 0h8.71V6.094h-8.71a2.657 2.657 0 00-5.08 0h-2.46v1.562zm5-1.875a1.094 1.094 0 100 2.188 1.094 1.094 0 000-2.188zM18.125 12.969h-2.46a2.657 2.657 0 00-5.08 0h-8.71v1.562h8.71a2.657 2.657 0 005.08 0h2.46V12.97zm-5-.313a1.094 1.094 0 110 2.188 1.094 1.094 0 010-2.188z" stroke-width="0"/>
</symbol><symbol fill="none" viewBox="0 0 24 24" id="folder" xmlns="http://www.w3.org/2000/svg">
    <path d="M18.4 19c.424 0 .831-.174 1.131-.482.3-.31.469-.728.469-1.165V9.118c0-.437-.169-.856-.469-1.165a1.577 1.577 0 00-1.131-.482h-6.32a1.563 1.563 0 01-.768-.194 1.618 1.618 0 01-.584-.548l-.648-.988a1.618 1.618 0 00-.577-.544A1.564 1.564 0 008.744 5H5.6c-.424 0-.831.174-1.131.482-.3.31-.469.728-.469 1.165v10.706c0 .437.169.856.469 1.165.3.308.707.482 1.131.482h12.8z" stroke-width="1.5" stroke-linecap="square" stroke-linejoin="round"/>
</symbol><symbol fill="none" viewBox="0 0 20 20" id="grid" xmlns="http://www.w3.org/2000/svg">
    <path d="M8.333 2.5H2.5v5.833h5.833V2.5zM17.5 2.5h-5.833v5.833H17.5V2.5zM17.5 11.667h-5.833V17.5H17.5v-5.833zM8.333 11.667H2.5V17.5h5.833v-5.833z" stroke-width="1.67" stroke-linecap="round" stroke-linejoin="round"/>
</symbol><symbol fill="none" viewBox="0 0 32 32" id="icon_step" xmlns="http://www.w3.org/2000/svg">
    <circle cx="16" cy="16" r="14.5" stroke="#084" stroke-width="3"/>
    <path d="M20.508 11.903a1.5 1.5 0 012.154 2.083l-.107.11-7.452 6.956-4.595-4.289a1.5 1.5 0 011.93-2.292l.117.1 2.547 2.377 5.406-5.045z" fill="#084"/>
</symbol><symbol viewBox="0 0 20 20" id="map-pin" xmlns="http://www.w3.org/2000/svg">
    <path fill-rule="evenodd" clip-rule="evenodd" d="M9.844 4.844a2.969 2.969 0 100 5.937 2.969 2.969 0 000-5.937zM8.438 7.812a1.406 1.406 0 112.812 0 1.406 1.406 0 01-2.813 0z" stroke-width="0"/>
    <path fill-rule="evenodd" clip-rule="evenodd" d="M8.319 17.674a33.079 33.079 0 00.983 1.014.781.781 0 001.084 0 33.07 33.07 0 00.983-1.014 35.545 35.545 0 002.142-2.532c.779-1.018 1.572-2.187 2.173-3.386.595-1.188 1.035-2.468 1.035-3.69 0-3.84-3.067-6.972-6.875-6.972-3.809 0-6.875 3.133-6.875 6.971 0 1.223.439 2.503 1.035 3.691.6 1.2 1.394 2.368 2.172 3.386.781 1.02 1.56 1.904 2.143 2.532zM9.844 2.656c-2.923 0-5.313 2.41-5.313 5.41 0 .873.323 1.9.87 2.99.541 1.08 1.272 2.164 2.016 3.137a33.935 33.935 0 002.427 2.82 33.932 33.932 0 002.426-2.82c.745-.973 1.475-2.057 2.017-3.137.547-1.09.87-2.117.87-2.99 0-3-2.39-5.41-5.313-5.41z" stroke-width="0"/>
</symbol><symbol fill="none" viewBox="0 0 24 24" id="map-pin-alert-filled" xmlns="http://www.w3.org/2000/svg">
    <path d="M21 10c0 7-9 13-9 13s-9-6-9-13a9 9 0 1118 0z" fill="#D92D20"/>
    <path fill-rule="evenodd" clip-rule="evenodd" d="M12 5.75c.69 0 1.25.56 1.25 1.25v4.5a1.25 1.25 0 11-2.5 0V7c0-.69.56-1.25 1.25-1.25zM10.75 16c0-.69.56-1.25 1.25-1.25h.01a1.25 1.25 0 110 2.5H12c-.69 0-1.25-.56-1.25-1.25z" fill="#fff"/>
</symbol><symbol viewBox="0 0 20 20" id="plus" xmlns="http://www.w3.org/2000/svg">
    <path d="M9.219 10.781V17.5h1.562v-6.719H17.5V9.22h-6.719V2.5H9.22v6.719H2.5v1.562h6.719z" stroke-width="0"/>
</symbol><symbol viewBox="0 0 24 24" id="search" xmlns="http://www.w3.org/2000/svg">
    <path fill-rule="evenodd" clip-rule="evenodd" d="M10.875 2.813a8.062 8.062 0 105 14.388l4.375 4.375 1.326-1.326-4.375-4.375a8.062 8.062 0 00-6.326-13.062zm-6.188 8.062a6.188 6.188 0 1112.376 0 6.188 6.188 0 01-12.375 0z" stroke-width="0"/>
</symbol><symbol fill="none" viewBox="0 0 24 24" id="search2" xmlns="http://www.w3.org/2000/svg">
    <path fill-rule="evenodd" clip-rule="evenodd" d="M10.875 2.813a8.062 8.062 0 105 14.388l4.375 4.375 1.326-1.326-4.375-4.375a8.062 8.062 0 00-6.326-13.062zm-6.188 8.062a6.188 6.188 0 1112.376 0 6.188 6.188 0 01-12.375 0z" fill="#5D6570"/>
</symbol><symbol fill="none" viewBox="0 0 16 16" id="search3" xmlns="http://www.w3.org/2000/svg">
    <path fill-rule="evenodd" clip-rule="evenodd" d="M7.25 1.875a5.375 5.375 0 103.333 9.592l2.917 2.917.884-.884-2.917-2.917A5.375 5.375 0 007.25 1.875zM3.125 7.25a4.125 4.125 0 118.25 0 4.125 4.125 0 01-8.25 0z" fill="#176DEF"/>
</symbol><symbol viewBox="0 0 20 20" id="settings" xmlns="http://www.w3.org/2000/svg">
    <path fill-rule="evenodd" clip-rule="evenodd" d="M10 6.719a3.281 3.281 0 100 6.562 3.281 3.281 0 000-6.562zM8.283 10a1.719 1.719 0 113.437 0 1.719 1.719 0 01-3.437 0z" stroke-width="0"/>
    <path fill-rule="evenodd" clip-rule="evenodd" d="M10 1.334c-.577 0-1.142.057-1.69.165a.781.781 0 00-.6.553l-.534 1.877c-.296.138-.58.297-.851.475l-1.946-.49a.781.781 0 00-.766.23A8.665 8.665 0 001.88 6.97c-.105.282-.04.6.17.816l1.31 1.357a6.75 6.75 0 00-.037 1.34l-1.38 1.429a.781.781 0 00-.18.785 8.649 8.649 0 001.525 2.785.781.781 0 00.796.263l1.812-.455c.432.336.907.62 1.416.843l.523 1.84a.781.781 0 00.613.555 8.714 8.714 0 003.105 0 .781.781 0 00.613-.555l.523-1.84a6.695 6.695 0 001.416-.843l1.812.455a.781.781 0 00.796-.263 8.649 8.649 0 001.525-2.785.781.781 0 00-.18-.785l-1.38-1.43a6.796 6.796 0 00-.038-1.339l1.311-1.357a.781.781 0 00.17-.816 8.665 8.665 0 00-1.732-2.824.781.781 0 00-.767-.23l-1.946.49a6.682 6.682 0 00-.851-.476l-.534-1.877a.781.781 0 00-.6-.553A8.704 8.704 0 0010 1.334zm-1.422 3.38l.5-1.758a7.178 7.178 0 011.845 0l.5 1.757a.781.781 0 00.464.513c.42.166.811.385 1.168.65.189.14.43.187.656.13l1.824-.458c.373.462.689.973.937 1.52l-1.226 1.27a.781.781 0 00-.206.69 5.16 5.16 0 01.05 1.636.781.781 0 00.213.643l1.292 1.338a7.085 7.085 0 01-.796 1.458l-1.697-.426a.781.781 0 00-.707.172 5.129 5.129 0 01-1.622.969.781.781 0 00-.482.52l-.49 1.72a7.17 7.17 0 01-1.601 0l-.49-1.72a.781.781 0 00-.482-.52 5.129 5.129 0 01-1.622-.969.781.781 0 00-.707-.172l-1.697.426c-.32-.45-.587-.939-.796-1.458l1.292-1.338a.781.781 0 00.213-.643 5.188 5.188 0 01.05-1.637.781.781 0 00-.206-.69L3.53 7.067a7.104 7.104 0 01.937-1.52l1.823.46c.228.056.468.009.657-.131.356-.265.749-.484 1.168-.65a.781.781 0 00.464-.513z"/>
</symbol><symbol fill="none" viewBox="0 0 24 24" id="sort" xmlns="http://www.w3.org/2000/svg">
    <path fill-rule="evenodd" clip-rule="evenodd" d="M4 8a1 1 0 011-1h14a1 1 0 110 2H5a1 1 0 01-1-1zm3 4a1 1 0 011-1h8a1 1 0 110 2H8a1 1 0 01-1-1zm3 3a1 1 0 100 2h4a1 1 0 100-2h-4z" fill="#003099"/>
</symbol><symbol viewBox="0 0 20 19" id="star" xmlns="http://www.w3.org/2000/svg">
    <path d="M10 0l3.056 5.793 6.455 1.117-4.566 4.697.933 6.483L10 15.2l-5.878 2.89.933-6.483L.489 6.91l6.455-1.117L10 0z"/>
</symbol><symbol fill="none" viewBox="0 0 24 24" id="status-information" xmlns="http://www.w3.org/2000/svg">
    <path d="M24 12c0 6.627-5.373 12-12 12S0 18.627 0 12 5.373 0 12 0s12 5.373 12 12z" fill="#0763ED"/>
    <path d="M10.35 7.35a1.65 1.65 0 113.3 0 1.65 1.65 0 01-3.3 0zM10.875 10.8h2.25v7.5h-2.25v-7.5z" fill="#fff"/>
</symbol><symbol fill="none" viewBox="0 0 24 24" id="status-warning" xmlns="http://www.w3.org/2000/svg">
    <path d="M24 12c0 6.627-5.373 12-12 12S0 18.627 0 12 5.373 0 12 0s12 5.373 12 12z" fill="#F27500"/>
    <path d="M10.687 5.25h2.625l-.375 7.5h-1.875l-.375-7.5zM10.35 16.65a1.65 1.65 0 113.3 0 1.65 1.65 0 01-3.3 0z" fill="#fff"/>
</symbol><symbol fill="none" viewBox="0 0 24 24" id="success" xmlns="http://www.w3.org/2000/svg">
    <path d="M24 12c0 6.627-5.373 12-12 12S0 18.627 0 12 5.373 0 12 0s12 5.373 12 12z" fill="#00A674"/>
    <path d="M10.519 17.013l8.218-8.219-1.804-1.804-6.415 6.415-2.942-2.941-1.803 1.803 4.746 4.746z" fill="#fff"/>
</symbol><symbol viewBox="0 0 24 24" id="time" xmlns="http://www.w3.org/2000/svg">
    <path d="M12.938 11.47V5.061h-1.876V12c0 .33.173.634.456.804l4.554 2.732.964-1.608-4.099-2.459z"/>
    <path fill-rule="evenodd" clip-rule="evenodd" d="M12 1.313C6.097 1.313 1.312 6.096 1.312 12c0 5.902 4.785 10.688 10.688 10.688 5.902 0 10.688-4.785 10.688-10.688 0-5.903-4.785-10.688-10.688-10.688zM3.187 12a8.813 8.813 0 1117.626 0 8.813 8.813 0 01-17.625 0z"/>
</symbol><symbol viewBox="0 0 21 21" id="trash" xmlns="http://www.w3.org/2000/svg">
    <path d="M9.68 7.794v8.93H7.795v-8.93h1.887zM13.706 16.725v-8.93h-1.887v8.93h1.887z"/>
    <path fill-rule="evenodd" clip-rule="evenodd" d="M7.731.75a.943.943 0 00-.943.943V3.77H.75v1.887h2.073l.948 14.213c.033.496.445.881.941.881h12.076a.943.943 0 00.941-.88l.948-14.214h2.073V3.769h-6.038V1.693A.943.943 0 0013.77.75H7.73zm5.095 3.019V2.637H8.675v1.132h4.15zm3.96 1.887H4.714l.88 13.207h10.311l.88-13.207z"/>
</symbol><symbol viewBox="0 0 20 20" id="user" xmlns="http://www.w3.org/2000/svg">
    <path d="M5.469 5.625a4.531 4.531 0 119.062 0 4.531 4.531 0 01-9.062 0zM18.1 18.906a.782.782 0 00.764-.942l-.001-.007-.005-.02a5.93 5.93 0 00-.075-.289 9.443 9.443 0 00-1.55-3.047c-1.298-1.689-3.547-3.351-7.258-3.351s-5.96 1.662-7.26 3.352a9.442 9.442 0 00-1.55 3.047 5.771 5.771 0 00-.074.288c-.01.049-.007.031-.007.031a.781.781 0 00.766.938H18.1z"/>
</symbol></svg>