<svg width="314" height="248" viewBox="0 0 314 248" fill="none" xmlns="http://www.w3.org/2000/svg">
<path d="M218.558 109.189C224.704 93.4112 221.935 75.5405 211.382 62.2977" stroke="#13151A" stroke-width="1.4" stroke-miterlimit="10" stroke-linecap="round" stroke-linejoin="round"/>
<path d="M291.653 113.234C303.256 113.234 312.653 103.715 312.653 91.9628C312.653 80.9644 304.408 71.9153 293.845 70.8055C294.154 68.7139 294.322 66.5797 294.322 64.4028C294.322 40.8551 275.471 21.7608 252.224 21.7608C251.423 21.7608 250.637 21.7893 249.836 21.832C242.363 9.99411 229.272 2.14014 214.368 2.14014C191.121 2.14014 172.27 21.2344 172.27 44.7821C172.27 45.6358 172.298 46.4752 172.354 47.3147C169.236 45.963 165.794 45.1947 162.184 45.1947C154.065 45.1947 146.831 49.0079 142.098 54.941C137.364 49.0079 130.13 45.1947 122.011 45.1947C108.751 45.1947 97.8503 55.3109 96.3754 68.344C94.9145 68.0452 93.3975 67.8745 91.8383 67.8745C79.4771 67.8745 69.4478 78.0334 69.4478 90.5542C69.4478 103.075 79.4771 113.234 91.8383 113.234H291.653Z" fill="white" stroke="#13151A" stroke-width="1.4" stroke-miterlimit="10" stroke-linecap="round" stroke-linejoin="round"/>
<path d="M101.282 57.717C103.278 39.9395 118.029 26.1406 135.973 26.1406C146.989 34.1884 169.26 54.5458 170.207 71.5935C171.154 88.6412 168.234 110.267 166.655 118.948H95.1421C78.4145 118.948 64.8423 105.091 64.8423 88.0124C64.8423 70.9336 78.4145 57.0765 95.1421 57.0765C97.2521 57.0765 99.305 57.3094 101.282 57.717Z" fill="white" stroke="#13151A" stroke-width="1.4" stroke-miterlimit="10" stroke-linecap="round" stroke-linejoin="round"/>
<path d="M270.917 127.051L208.461 127.051" stroke="#13151A" stroke-width="1.4" stroke-miterlimit="10" stroke-linecap="round" stroke-linejoin="round"/>
<path d="M218.746 19.5024C234.436 19.5024 247.159 30.1047 247.159 43.1799C257.107 43.1799 265.174 49.9023 265.174 58.1925" stroke="#13151A" stroke-width="1.4" stroke-miterlimit="10" stroke-linecap="round" stroke-linejoin="round"/>
<path d="M169.6 173.179L254.325 243.592C259.833 248.17 268.024 247.35 272.516 241.771C277.049 236.14 276.225 227.914 270.666 223.294L185.941 152.882C185.729 154.33 174.832 167.786 169.6 173.179Z" fill="#003099" stroke="#003099" stroke-width="1.4" stroke-miterlimit="10" stroke-linecap="round" stroke-linejoin="round"/>
<path d="M264.066 226.597L247.099 212.496M230.131 198.395L238.615 205.445" stroke="white" stroke-width="1.4" stroke-miterlimit="10" stroke-linecap="round" stroke-linejoin="round"/>
<path d="M171.05 173.387C173.119 173.997 178.401 169.496 181.427 166.037C184.454 162.578 188.067 155.933 187.048 154.362C186.03 152.791 182.259 151.091 177.341 150.038L165.454 164.649C167.487 169.257 168.982 172.777 171.05 173.387Z" fill="#13151A" stroke="#13151A" stroke-width="1.4" stroke-miterlimit="10" stroke-linecap="round" stroke-linejoin="round"/>
<path d="M181.427 166.036C183.722 163.414 186.353 158.961 187.048 156.275" stroke="white" stroke-width="1.4" stroke-miterlimit="10" stroke-linecap="round" stroke-linejoin="round"/>
<path d="M143.416 160.147C147.514 158.781 154.872 158.315 165.81 164.606C165.81 164.606 170.186 162.145 173.212 158.686C176.239 155.227 177.697 149.996 177.697 149.996C169.28 140.486 168.259 133.215 168.79 128.9C166.08 135.235 162.478 141.079 158.234 146.301C154.043 151.507 149.051 156.138 143.416 160.147Z" fill="white" stroke="#13151A" stroke-width="1.4" stroke-miterlimit="10" stroke-linecap="round" stroke-linejoin="round"/>
<path d="M138.764 162.54C113.55 178.892 81.5186 180.532 54.7619 166.828C28.0052 153.123 10.527 126.146 8.9836 96.0901C7.8926 74.9155 14.7438 54.4912 27.7329 38.52C40.6688 22.5643 59.2822 11.6579 80.1967 8.459C109.886 3.9194 139.802 15.6062 158.584 39.1421C177.419 62.6626 182.279 94.4106 171.373 122.486C168.401 130.669 163.708 138.353 158.238 145.086C152.793 151.787 146.203 158.07 138.764 162.54ZM20.1804 95.5465C21.5419 121.611 36.7039 144.987 59.8691 156.848C83.103 168.747 110.817 167.324 132.674 153.105C139.121 148.917 144.78 143.803 149.538 137.97C154.243 132.152 158.152 125.583 160.948 118.356C170.416 94.0505 166.15 66.5206 149.894 46.1202C133.585 25.7352 107.692 15.5928 81.9312 19.5668C63.8353 22.3497 47.6773 31.7904 36.4328 45.6361C25.1882 59.4818 19.2114 77.1673 20.1804 95.5465Z" fill="#13151A" stroke="#13151A" stroke-width="1.4" stroke-miterlimit="10" stroke-linecap="round" stroke-linejoin="round"/>
<path d="M13.8307 96.2827C12.8147 76.7562 19.1666 57.8554 31.1477 43.1027" stroke="white" stroke-width="1.4" stroke-linecap="round" stroke-linejoin="round"/>
<path d="M124.346 242.176H36.6369C27.5761 242.176 31.2004 221.951 43.1607 228.866C40.9861 224.366 39.6813 213.785 51.8591 210.097C64.0369 206.409 71.4306 215.146 73.6052 219.646C73.0011 212.622 78.5343 199.297 96.8009 199.56C115.068 199.824 117.701 213.5 117.822 220.634C130.735 216.479 136.69 223.022 137.912 229.014C139.253 235.592 133.769 242.176 124.346 242.176Z" fill="white" stroke="#13151A" stroke-width="1.4" stroke-miterlimit="10" stroke-linecap="round" stroke-linejoin="round"/>
</svg>
