<svg width="26" height="29" viewBox="0 0 26 29" xmlns="http://www.w3.org/2000/svg">
<path d="M1.82368 17.8735L3.95689 15.7286L13.556 6.07772C15.3251 4.31232 18.1808 4.31764 19.9433 6.08971C21.7057 7.86178 21.711 10.733 19.9552 12.5117L10.3565 22.1655C9.96392 22.5605 9.32712 22.5605 8.9343 22.1655C8.54171 21.7706 8.54171 21.1305 8.9343 20.7356L18.533 11.0818C19.5147 10.0947 19.5147 8.49473 18.533 7.50768C17.5513 6.52063 15.9599 6.52063 14.9782 7.50768L5.37667 17.1586L3.24347 19.3032C1.47613 21.0808 1.4768 23.9622 3.24457 25.739C5.01256 27.5157 7.87819 27.5153 9.64552 25.7376L11.4228 23.95L21.3772 13.9415L22.0884 13.2266C24.5742 10.6491 24.5426 6.54283 22.0177 4.00395C19.4926 1.46529 15.4086 1.43354 12.845 3.9329L2.17962 14.6566C1.92547 14.9119 1.55518 15.0115 1.20829 14.9181C0.861187 14.8246 0.590036 14.5522 0.497078 14.2032C0.404118 13.8542 0.503481 13.4821 0.757408 13.2266L11.4228 2.50317C14.7629 -0.839823 20.1641 -0.833607 23.4965 2.51716C26.8291 5.8677 26.8353 11.2982 23.5104 14.6566L12.845 25.38L11.0651 27.1676C8.49821 29.6465 4.4303 29.6052 1.91399 27.0744C-0.602537 24.5437 -0.642502 20.4536 1.82368 17.8735Z"/>
</svg>
